<?xml version="1.0" encoding="UTF-8" standalone="no"?>
<svg width="119px" height="17px" viewBox="0 0 119 17" version="1.1" xmlns="http://www.w3.org/2000/svg" xmlns:xlink="http://www.w3.org/1999/xlink">
    <g transform="translate(-13.000000, -17.000000)" fill="#FFFFFF">
        <g transform="translate(13.000000, 17.000000)">
            <path d="M12.8969442,14.5596207 C12.8969442,14.5599138 12.8367485,14.586 12.8126075,14.5956724 C8.9676025,16.1365172 4.45636828,14.5440862 2.76430274,11.0426724 C1.0722372,7.54155172 2.83359058,3.43575862 6.67859555,1.89491379 C6.70273656,1.88524138 6.76105121,1.86355172 6.76136473,1.86384483 L5.98195489,0.250896552 C5.98195489,0.250896552 5.919878,0.273758621 5.89573698,0.283431034 C1.07411831,2.21556897 -1.12867073,7.36217241 0.992916726,11.752569 C3.11513122,16.1432586 8.77353383,18.1392931 13.5951525,16.2071552 C13.6192935,16.1974828 13.6763541,16.1728621 13.6763541,16.1728621 L12.8969442,14.5596207"></path>
            <path d="M5.89981274,8.20689655 C5.89949922,8.20689655 5.8960505,8.21744828 5.8960505,8.19312069 C5.8960505,6.26801724 7.61601929,4.73039655 9.73070932,4.73039655 C11.8450858,4.73039655 13.5650546,6.25336207 13.5650546,8.17875862 C13.5650546,8.2027931 13.5616059,8.20689655 13.5612924,8.20689655 L15.4963357,8.20689655 C15.4966492,8.20689655 15.5000979,8.21744828 15.5000979,8.19312069 C15.5000979,5.29637931 12.9119932,2.96855172 9.73070932,2.96855172 C6.54911193,2.96855172 3.96069372,5.28172414 3.96069372,8.17875862 C3.96069372,8.2027931 3.96445595,8.20689655 3.96476947,8.20689655 L5.89981274,8.20689655"></path>
            <g transform="translate(22.368421, 0.894737)">
                <path d="M10.9748759,0.570780399 L8.2532118,0.570780399 L2.26216485,6.2490735 L2.26216485,0.570780399 L0.0675273088,0.570780399 L0.0675273088,13.7604356 L2.26216485,13.7604356 L2.26216485,7.31333212 L8.67426869,13.7604356 L11.4990807,13.7604356 L4.55211236,6.70015971 L10.9748759,0.570780399"></path>
                <path d="M23.8050404,7.55045281 C24.9939069,6.88364247 25.6758122,5.72822868 25.6758122,4.36647005 C25.6758122,2.96455626 24.9804256,1.88212523 23.6658377,1.20622868 C22.4866903,0.58953902 21.1144148,0.570780399 19.6941708,0.570780399 L15.7435097,0.570780399 L15.7435097,13.7604356 L17.9381473,13.7604356 L17.9381473,8.4845735 L20.0352802,8.4845735 L24.2950716,13.7604356 L26.9098255,13.7604356 L22.4017265,8.01560799 C22.9293801,7.91097005 23.3805348,7.79460799 23.8050404,7.55045281 L23.8050404,7.55045281 Z M17.9381473,2.32940109 L19.5590438,2.32940109 C20.9441736,2.32940109 21.7746872,2.40912523 22.4691332,2.75850454 C23.1588764,3.11491833 23.5231863,3.7157804 23.5231863,4.48781488 C23.5231863,5.13293557 23.2664137,5.57522868 22.7581983,5.92724592 C22.1995063,6.32264247 21.4100638,6.43284936 20.1180494,6.43284936 L17.9381473,6.43284936 L17.9381473,2.32940109 L17.9381473,2.32940109 Z"></path>
                <path d="M42.6469442,0.570780399 L31.4194921,0.570780399 L31.4194921,2.32940109 L38.853043,2.32940109 L30.9125309,13.7604356 L42.3926798,13.7604356 L42.3926798,12.0018149 L34.7098808,12.0018149 L42.5814186,0.579866606 L42.6469442,0.570780399"></path>
                <path d="M52.5660789,0.570780399 L46.6897801,13.7604356 L48.9076181,13.7604356 L50.4880706,10.2431942 L56.5546758,10.2431942 L58.1160037,13.7604356 L60.4307193,13.7604356 L54.5349823,0.570780399 L52.5660789,0.570780399 L52.5660789,0.570780399 Z M51.2533721,8.4845735 L52.3020953,6.00345281 C52.7814669,4.89229764 53.1881019,3.90922868 53.5408115,3.0354873 C53.9054348,3.94234936 54.3173996,4.96762523 54.7406512,5.96593557 L55.791569,8.4845735 L51.2533721,8.4845735 L51.2533721,8.4845735 Z"></path>
                <path d="M75.6257625,7.21543557 C75.6257625,8.3224873 75.5919024,9.50164247 75.6085189,10.5380563 C74.8570123,9.56641833 74.100803,8.6715735 73.4229735,7.84209074 L67.5187715,0.570780399 L65.5931338,0.570780399 L65.5931338,13.7604356 L67.4742517,13.7604356 L67.4742517,7.14303902 C67.4742517,6.0362804 67.5407178,4.85624592 67.5241013,3.82012523 C68.2743538,4.79000454 69.0650504,5.67165971 69.7438204,6.50290109 L75.6464548,13.7604356 L77.5068804,13.7604356 L77.5068804,0.570780399 L75.6257625,0.570780399 L75.6257625,7.21543557"></path>
                <path d="M90.5790821,0.570780399 L88.6101787,0.570780399 L82.7341935,13.7604356 L84.951718,13.7604356 L86.5321705,10.2431942 L92.5987757,10.2431942 L94.1601036,13.7604356 L96.4748191,13.7604356 L90.5790821,0.570780399 L90.5790821,0.570780399 Z M87.2977855,8.4845735 L88.3465087,6.00345281 C88.8246262,4.89464247 89.2312612,3.9115735 89.5849113,3.03519419 C89.94734,3.9364873 90.3589913,4.96176316 90.784751,5.96593557 L91.8356689,8.4845735 L87.2977855,8.4845735 L87.2977855,8.4845735 Z"></path>
            </g>
            <path d="M11.6162165,8.41793103 C11.6162165,9.40305172 10.762189,10.2014655 9.70876295,10.2014655 C8.65533693,10.2014655 7.80130941,9.40305172 7.80130941,8.41793103 C7.80130941,7.43310345 8.65533693,6.63468966 9.70876295,6.63468966 C10.762189,6.63468966 11.6162165,7.43310345 11.6162165,8.41793103"></path>
        </g>
    </g>
</svg>